<svg width="648" height="411" viewBox="0 0 648 411" fill="none" xmlns="http://www.w3.org/2000/svg">
<path d="M5 27L441 136.968V411L0 303.032L5 27Z" fill="#C26A17"/>
<path d="M444 135.49L648 97V363.51L444 411V135.49Z" fill="#4B2E13"/>
<path d="M9.36298 296.899L15.0995 38.8205L58.1837 49.4647L53.4265 263.484L430.73 356.698L429.75 400.758L9.36298 296.899Z" fill="black" fill-opacity="0.68"/>
<path d="M62.4762 253.244L66.9466 52.1237L228.483 92.0321L227.53 134.92L110.239 105.943L109.5 139.17L220.753 166.656L219.799 209.544L108.547 182.059L107.675 221.287L226.592 250.666L225.639 293.554L62.4762 253.244Z" fill="black" fill-opacity="0.68"/>
<path d="M427.925 243.012C427.639 255.893 426.261 267.081 423.793 276.578C421.326 285.977 417.959 293.878 413.691 300.28C409.5 306.702 404.483 311.791 398.639 315.548C392.872 319.323 386.47 321.912 379.433 323.313C372.396 324.714 364.835 325.152 356.751 324.627C348.669 324.004 340.254 322.612 331.505 320.45L230.24 295.432L234.71 94.3116L335.743 119.272C344.492 121.434 352.876 124.241 360.895 127.694C368.916 131.049 376.376 135.149 383.274 139.993C390.25 144.856 396.545 150.582 402.159 157.169C407.775 163.659 412.513 171.158 416.372 179.667C420.31 188.097 423.291 197.566 425.315 208.074C427.339 218.582 428.209 230.228 427.925 243.012ZM384.492 232.281C384.707 222.621 383.887 213.98 382.033 206.359C380.255 198.757 377.211 192.118 372.9 186.441C368.669 180.686 363.056 175.816 356.06 171.831C349.067 167.748 340.499 164.454 330.357 161.949L276.822 148.722L274.297 262.31L327.833 275.536C337.975 278.042 346.593 279.043 353.688 278.539C360.786 277.937 366.554 275.83 370.994 272.217C375.513 268.526 378.819 263.358 380.913 256.712C383.085 250.086 384.278 241.942 384.492 232.281Z" fill="black" fill-opacity="0.68"/>
<path d="M632.541 218.994C632.066 240.356 629.63 260.005 625.233 277.942C620.838 295.759 614.766 311.576 607.015 325.395C599.265 339.214 589.96 350.988 579.102 360.715C568.308 370.299 556.242 377.611 542.904 382.651C529.566 387.691 517.562 389.475 506.891 388.002C496.285 386.385 487.319 381.516 479.995 373.393C472.67 365.271 467.142 353.837 463.41 339.091C459.68 324.225 458.053 306.111 458.528 284.75C459.003 263.388 461.468 243.788 465.925 225.948C470.384 207.987 476.52 192.086 484.333 178.243C492.145 164.401 501.479 152.676 512.335 143.069C523.256 133.318 535.385 125.922 548.723 120.882C562.061 115.842 574.002 114.142 584.546 115.782C595.155 117.278 604.091 122.099 611.353 130.245C618.615 138.391 624.08 149.909 627.748 164.799C631.418 179.568 633.016 197.633 632.541 218.994ZM597.645 232.18C597.852 222.888 597.282 213.948 595.935 205.362C594.652 196.632 592.139 189.324 588.394 183.439C584.711 177.531 579.571 173.549 572.973 171.495C566.375 169.441 557.896 170.371 547.536 174.286C540.588 176.911 534.453 180.307 529.131 184.472C523.813 188.516 519.189 193.135 515.259 198.33C511.33 203.525 508.006 209.149 505.288 215.202C502.572 221.135 500.375 227.291 498.695 233.67C497.018 239.928 495.768 246.324 494.946 252.857C494.189 259.247 493.744 265.459 493.609 271.493C493.473 277.648 493.645 283.746 494.126 289.788C494.669 295.805 495.651 301.418 497.073 306.625C498.498 311.711 500.458 316.236 502.954 320.199C505.449 324.163 508.579 327.289 512.342 329.576C516.108 331.744 520.603 332.917 525.828 333.097C531.055 333.156 537.143 331.873 544.091 329.247C554.451 325.332 563.032 319.816 569.834 312.698C576.636 305.58 582.042 297.614 586.052 288.798C590.124 279.96 593.006 270.673 594.699 260.938C596.457 251.059 597.439 241.473 597.645 232.18Z" fill="black" fill-opacity="0.68"/>
<path d="M203.95 0.537323L644.317 95.4269L443 134L7.00002 23.9998L203.95 0.537323Z" fill="#7D4714"/>
</svg>
